<?xml version="1.0" encoding="UTF-8" standalone="no"?>
<!DOCTYPE svg PUBLIC "-//W3C//DTD SVG 1.1//EN"
 "http://www.w3.org/Graphics/SVG/1.1/DTD/svg11.dtd">
<!-- Generated by graphviz version 2.50.0 (0)
 -->
<!-- Title: snakemake_dag Pages: 1 -->
<svg width="686pt" height="260pt"
 viewBox="0.00 0.00 686.00 260.00" xmlns="http://www.w3.org/2000/svg" xmlns:xlink="http://www.w3.org/1999/xlink">
<g id="graph0" class="graph" transform="scale(1 1) rotate(0) translate(4 256)">
<title>snakemake_dag</title>
<polygon fill="white" stroke="transparent" points="-4,4 -4,-256 682,-256 682,4 -4,4"/>
<!-- 0 -->
<g id="node1" class="node">
<title>0</title>
<path fill="none" stroke="#88d856" stroke-width="2" stroke-dasharray="5,2" d="M392,-36C392,-36 362,-36 362,-36 356,-36 350,-30 350,-24 350,-24 350,-12 350,-12 350,-6 356,0 362,0 362,0 392,0 392,0 398,0 404,-6 404,-12 404,-12 404,-24 404,-24 404,-30 398,-36 392,-36"/>
<text text-anchor="middle" x="377" y="-15.5" font-family="sans" font-size="10.00">all</text>
</g>
<!-- 1 -->
<g id="node2" class="node">
<title>1</title>
<path fill="none" stroke="#bed856" stroke-width="2" stroke-dasharray="5,2" d="M155,-108C155,-108 75,-108 75,-108 69,-108 63,-102 63,-96 63,-96 63,-84 63,-84 63,-78 69,-72 75,-72 75,-72 155,-72 155,-72 161,-72 167,-78 167,-84 167,-84 167,-96 167,-96 167,-102 161,-108 155,-108"/>
<text text-anchor="middle" x="115" y="-87.5" font-family="sans" font-size="10.00">compute_correlation</text>
</g>
<!-- 1&#45;&gt;0 -->
<g id="edge1" class="edge">
<title>1&#45;&gt;0</title>
<path fill="none" stroke="grey" stroke-width="2" d="M167.08,-75.09C218.27,-61.41 295.1,-40.88 340.24,-28.82"/>
<polygon fill="grey" stroke="grey" stroke-width="2" points="341.15,-32.2 349.91,-26.24 339.34,-25.44 341.15,-32.2"/>
</g>
<!-- 2 -->
<g id="node3" class="node">
<title>2</title>
<path fill="none" stroke="#56c1d8" stroke-width="2" stroke-dasharray="5,2" d="M104,-180C104,-180 12,-180 12,-180 6,-180 0,-174 0,-168 0,-168 0,-156 0,-156 0,-150 6,-144 12,-144 12,-144 104,-144 104,-144 110,-144 116,-150 116,-156 116,-156 116,-168 116,-168 116,-174 110,-180 104,-180"/>
<text text-anchor="middle" x="58" y="-159.5" font-family="sans" font-size="10.00">precompute_correation</text>
</g>
<!-- 2&#45;&gt;1 -->
<g id="edge6" class="edge">
<title>2&#45;&gt;1</title>
<path fill="none" stroke="grey" stroke-width="2" d="M72.09,-143.7C78.92,-135.3 87.26,-125.07 94.76,-115.86"/>
<polygon fill="grey" stroke="grey" stroke-width="2" points="97.47,-118.07 101.07,-108.1 92.04,-113.65 97.47,-118.07"/>
</g>
<!-- 3 -->
<g id="node4" class="node">
<title>3</title>
<path fill="none" stroke="#56d88a" stroke-width="2" stroke-dasharray="5,2" d="M277.5,-108C277.5,-108 200.5,-108 200.5,-108 194.5,-108 188.5,-102 188.5,-96 188.5,-96 188.5,-84 188.5,-84 188.5,-78 194.5,-72 200.5,-72 200.5,-72 277.5,-72 277.5,-72 283.5,-72 289.5,-78 289.5,-84 289.5,-84 289.5,-96 289.5,-96 289.5,-102 283.5,-108 277.5,-108"/>
<text text-anchor="middle" x="239" y="-87.5" font-family="sans" font-size="10.00">biomarker_anlaysis</text>
</g>
<!-- 3&#45;&gt;0 -->
<g id="edge2" class="edge">
<title>3&#45;&gt;0</title>
<path fill="none" stroke="grey" stroke-width="2" d="M272.76,-71.88C293.33,-61.44 319.62,-48.1 340.65,-37.44"/>
<polygon fill="grey" stroke="grey" stroke-width="2" points="342.27,-40.54 349.61,-32.9 339.11,-34.3 342.27,-40.54"/>
</g>
<!-- 4 -->
<g id="node5" class="node">
<title>4</title>
<path fill="none" stroke="#d8bc56" stroke-width="2" stroke-dasharray="5,2" d="M226,-180C226,-180 146,-180 146,-180 140,-180 134,-174 134,-168 134,-168 134,-156 134,-156 134,-150 140,-144 146,-144 146,-144 226,-144 226,-144 232,-144 238,-150 238,-156 238,-156 238,-168 238,-168 238,-174 232,-180 226,-180"/>
<text text-anchor="middle" x="186" y="-159.5" font-family="sans" font-size="10.00">run_survival_benefit</text>
</g>
<!-- 4&#45;&gt;3 -->
<g id="edge7" class="edge">
<title>4&#45;&gt;3</title>
<path fill="none" stroke="grey" stroke-width="2" d="M199.1,-143.7C205.39,-135.39 213.05,-125.28 219.96,-116.14"/>
<polygon fill="grey" stroke="grey" stroke-width="2" points="222.8,-118.19 226.05,-108.1 217.22,-113.96 222.8,-118.19"/>
</g>
<!-- 5 -->
<g id="node6" class="node">
<title>5</title>
<path fill="none" stroke="#d88d56" stroke-width="2" stroke-dasharray="5,2" d="M226,-252C226,-252 140,-252 140,-252 134,-252 128,-246 128,-240 128,-240 128,-228 128,-228 128,-222 134,-216 140,-216 140,-216 226,-216 226,-216 232,-216 238,-222 238,-228 238,-228 238,-240 238,-240 238,-246 232,-252 226,-252"/>
<text text-anchor="middle" x="183" y="-237" font-family="sans" font-size="10.00">create_input_sheets</text>
<text text-anchor="middle" x="183" y="-226" font-family="sans" font-size="10.00">dataset: main_combo</text>
</g>
<!-- 5&#45;&gt;4 -->
<g id="edge9" class="edge">
<title>5&#45;&gt;4</title>
<path fill="none" stroke="grey" stroke-width="2" d="M183.74,-215.7C184.07,-207.98 184.47,-198.71 184.84,-190.11"/>
<polygon fill="grey" stroke="grey" stroke-width="2" points="188.34,-190.25 185.27,-180.1 181.34,-189.95 188.34,-190.25"/>
</g>
<!-- 6 -->
<g id="node7" class="node">
<title>6</title>
<path fill="none" stroke="#d8bc56" stroke-width="2" stroke-dasharray="5,2" d="M348,-180C348,-180 268,-180 268,-180 262,-180 256,-174 256,-168 256,-168 256,-156 256,-156 256,-150 262,-144 268,-144 268,-144 348,-144 348,-144 354,-144 360,-150 360,-156 360,-156 360,-168 360,-168 360,-174 354,-180 348,-180"/>
<text text-anchor="middle" x="308" y="-159.5" font-family="sans" font-size="10.00">run_survival_benefit</text>
</g>
<!-- 6&#45;&gt;3 -->
<g id="edge8" class="edge">
<title>6&#45;&gt;3</title>
<path fill="none" stroke="grey" stroke-width="2" d="M290.94,-143.7C282.5,-135.14 272.18,-124.66 262.96,-115.3"/>
<polygon fill="grey" stroke="grey" stroke-width="2" points="265.37,-112.77 255.86,-108.1 260.39,-117.68 265.37,-112.77"/>
</g>
<!-- 7 -->
<g id="node8" class="node">
<title>7</title>
<path fill="none" stroke="#d88d56" stroke-width="2" stroke-dasharray="5,2" d="M348,-252C348,-252 268,-252 268,-252 262,-252 256,-246 256,-240 256,-240 256,-228 256,-228 256,-222 262,-216 268,-216 268,-216 348,-216 348,-216 354,-216 360,-222 360,-228 360,-228 360,-240 360,-240 360,-246 354,-252 348,-252"/>
<text text-anchor="middle" x="308" y="-237" font-family="sans" font-size="10.00">create_input_sheets</text>
<text text-anchor="middle" x="308" y="-226" font-family="sans" font-size="10.00">dataset: biomarker</text>
</g>
<!-- 7&#45;&gt;6 -->
<g id="edge10" class="edge">
<title>7&#45;&gt;6</title>
<path fill="none" stroke="grey" stroke-width="2" d="M308,-215.7C308,-207.98 308,-198.71 308,-190.11"/>
<polygon fill="grey" stroke="grey" stroke-width="2" points="311.5,-190.1 308,-180.1 304.5,-190.1 311.5,-190.1"/>
</g>
<!-- 8 -->
<g id="node9" class="node">
<title>8</title>
<path fill="none" stroke="#59d856" stroke-width="2" stroke-dasharray="5,2" d="M434.5,-108C434.5,-108 319.5,-108 319.5,-108 313.5,-108 307.5,-102 307.5,-96 307.5,-96 307.5,-84 307.5,-84 307.5,-78 313.5,-72 319.5,-72 319.5,-72 434.5,-72 434.5,-72 440.5,-72 446.5,-78 446.5,-84 446.5,-84 446.5,-96 446.5,-96 446.5,-102 440.5,-108 434.5,-108"/>
<text text-anchor="middle" x="377" y="-87.5" font-family="sans" font-size="10.00">compare_with_monotherapy</text>
</g>
<!-- 8&#45;&gt;0 -->
<g id="edge3" class="edge">
<title>8&#45;&gt;0</title>
<path fill="none" stroke="grey" stroke-width="2" d="M377,-71.7C377,-63.98 377,-54.71 377,-46.11"/>
<polygon fill="grey" stroke="grey" stroke-width="2" points="380.5,-46.1 377,-36.1 373.5,-46.1 380.5,-46.1"/>
</g>
<!-- 9 -->
<g id="node10" class="node">
<title>9</title>
<path fill="none" stroke="#d8bc56" stroke-width="2" stroke-dasharray="5,2" d="M471,-180C471,-180 391,-180 391,-180 385,-180 379,-174 379,-168 379,-168 379,-156 379,-156 379,-150 385,-144 391,-144 391,-144 471,-144 471,-144 477,-144 483,-150 483,-156 483,-156 483,-168 483,-168 483,-174 477,-180 471,-180"/>
<text text-anchor="middle" x="431" y="-159.5" font-family="sans" font-size="10.00">run_survival_benefit</text>
</g>
<!-- 9&#45;&gt;8 -->
<g id="edge11" class="edge">
<title>9&#45;&gt;8</title>
<path fill="none" stroke="grey" stroke-width="2" d="M417.65,-143.7C411.24,-135.39 403.44,-125.28 396.39,-116.14"/>
<polygon fill="grey" stroke="grey" stroke-width="2" points="399.07,-113.88 390.19,-108.1 393.53,-118.16 399.07,-113.88"/>
</g>
<!-- 10 -->
<g id="node11" class="node">
<title>10</title>
<path fill="none" stroke="#d88d56" stroke-width="2" stroke-dasharray="5,2" d="M476,-252C476,-252 390,-252 390,-252 384,-252 378,-246 378,-240 378,-240 378,-228 378,-228 378,-222 384,-216 390,-216 390,-216 476,-216 476,-216 482,-216 488,-222 488,-228 488,-228 488,-240 488,-240 488,-246 482,-252 476,-252"/>
<text text-anchor="middle" x="433" y="-237" font-family="sans" font-size="10.00">create_input_sheets</text>
<text text-anchor="middle" x="433" y="-226" font-family="sans" font-size="10.00">dataset: single_agent</text>
</g>
<!-- 10&#45;&gt;9 -->
<g id="edge12" class="edge">
<title>10&#45;&gt;9</title>
<path fill="none" stroke="grey" stroke-width="2" d="M432.51,-215.7C432.29,-207.98 432.02,-198.71 431.77,-190.11"/>
<polygon fill="grey" stroke="grey" stroke-width="2" points="435.27,-190 431.49,-180.1 428.28,-190.2 435.27,-190"/>
</g>
<!-- 11 -->
<g id="node12" class="node">
<title>11</title>
<path fill="none" stroke="#56d8c1" stroke-width="2" stroke-dasharray="5,2" d="M531.5,-108C531.5,-108 476.5,-108 476.5,-108 470.5,-108 464.5,-102 464.5,-96 464.5,-96 464.5,-84 464.5,-84 464.5,-78 470.5,-72 476.5,-72 476.5,-72 531.5,-72 531.5,-72 537.5,-72 543.5,-78 543.5,-84 543.5,-84 543.5,-96 543.5,-96 543.5,-102 537.5,-108 531.5,-108"/>
<text text-anchor="middle" x="504" y="-87.5" font-family="sans" font-size="10.00">pdxe_anlaysis</text>
</g>
<!-- 11&#45;&gt;0 -->
<g id="edge4" class="edge">
<title>11&#45;&gt;0</title>
<path fill="none" stroke="grey" stroke-width="2" d="M472.93,-71.88C454.88,-61.93 432.06,-49.35 413.2,-38.95"/>
<polygon fill="grey" stroke="grey" stroke-width="2" points="414.74,-35.81 404.3,-34.05 411.37,-41.94 414.74,-35.81"/>
</g>
<!-- 12 -->
<g id="node13" class="node">
<title>12</title>
<path fill="none" stroke="#568ad8" stroke-width="2" stroke-dasharray="5,2" d="M666,-108C666,-108 574,-108 574,-108 568,-108 562,-102 562,-96 562,-96 562,-84 562,-84 562,-78 568,-72 574,-72 574,-72 666,-72 666,-72 672,-72 678,-78 678,-84 678,-84 678,-96 678,-96 678,-102 672,-108 666,-108"/>
<text text-anchor="middle" x="620" y="-87.5" font-family="sans" font-size="10.00">clinical_data_summary</text>
</g>
<!-- 12&#45;&gt;0 -->
<g id="edge5" class="edge">
<title>12&#45;&gt;0</title>
<path fill="none" stroke="grey" stroke-width="2" d="M561.8,-72.23C515.81,-58.99 453.05,-40.91 413.78,-29.6"/>
<polygon fill="grey" stroke="grey" stroke-width="2" points="414.67,-26.21 404.09,-26.8 412.73,-32.94 414.67,-26.21"/>
</g>
</g>
</svg>
